<?xml version="1.0" encoding="utf-8"?>
<!-- Generator: Adobe Illustrator 21.1.0, SVG Export Plug-In . SVG Version: 6.00 Build 0)  -->
<svg version="1.1" id="Calque_1" xmlns="http://www.w3.org/2000/svg" xmlns:xlink="http://www.w3.org/1999/xlink" x="0px" y="0px"
	 viewBox="0 0 432 432" style="enable-background:new 0 0 432 432;" xml:space="preserve">
<style type="text/css">
	.st0{fill:#3B4F20;}
	.st1{fill:#8CB225;}
	.st2{fill:#020203;}
	.st3{fill:#4A5C2D;}
	.st4{fill:#FFFFFF;}
	.st5{fill:#E2CF1B;}
	.st6{fill:#718A2A;}
	.st7{fill:#DFBB20;}
	.st8{fill:#EAC839;}
	.st9{fill:#1B1B1B;}
	.st10{fill:#8EC045;}
	.st11{fill:#066938;}
	.st12{fill:#E5AD30;}
	.st13{fill:#4E4D4D;}
	.st14{fill:#8BB226;}
	.st15{fill:#CD1A25;}
	.st16{fill:#4B6426;}
	.st17{fill:#7D9E3C;}
	.st18{fill:#3C4F20;}
	.st19{fill:#384A1F;}
	.st20{fill:#E7E6E6;}
	.st21{fill:#D4A624;}
	.st22{fill:#F7F0E3;}
	.st23{fill:#D2A206;}
	.st24{fill:#CE9835;}
	.st25{fill:#E5D9C2;}
	.st26{fill:#E2AE42;}
	.st27{fill:#EEDBBE;}
	.st28{fill:#F9EA31;}
	.st29{fill:#EB6518;}
	.st30{fill:#0A7132;}
	.st31{fill:#FFE109;}
	.st32{fill:#D76013;}
	.st33{fill:#BBA763;}
	.st34{fill:#7FA22A;}
	.st35{fill:#5B321B;}
	.st36{fill:#4A2615;}
	.st37{fill:#D6AD08;}
	.st38{fill:#F7BBBD;}
	.st39{fill:#D76324;}
	.st40{fill:#607829;}
	.st41{fill:#715C3B;}
	.st42{fill:#644F34;}
	.st43{fill:#89704C;}
	.st44{fill:#B2A38F;}
	.st45{fill:#A59076;}
	.st46{fill:#FFDE0D;}
	.st47{fill:#34AA4A;}
	.st48{fill:#75388D;}
	.st49{fill:#BBBBBB;}
	.st50{fill:#A9A9AA;}
	.st51{fill:#06993B;}
	.st52{fill:#CDCCCC;}
	.st53{fill:#4D2563;}
	.st54{fill:#E3B320;}
	.st55{fill:#0B9541;}
	.st56{fill:#264D23;}
	.st57{fill:#FDC834;}
	.st58{fill:#8C633A;}
	.st59{fill:#B5A059;}
	.st60{fill:#F2F2F2;}
	.st61{fill:#808181;}
	.st62{fill:#62A930;}
	.st63{fill:#A1C746;}
	.st64{fill:#85B04B;}
	.st65{fill:#5E802C;}
	.st66{fill:#BFD783;}
	.st67{fill:#EFC9AF;}
	.st68{fill:#343434;}
	.st69{fill:#EB5B28;}
	.st70{fill:#D1A98D;}
	.st71{fill:#E0A9B8;}
	.st72{fill:#754D24;}
	.st73{fill:#B2D17B;}
	.st74{fill:#62B338;}
	.st75{fill:#274E22;}
	.st76{fill:#CCDC81;}
	.st77{fill-rule:evenodd;clip-rule:evenodd;fill:#85B04B;}
	.st78{fill:#509733;}
	.st79{fill:#203F1E;}
	.st80{fill:#20963A;}
	.st81{fill:#62246B;}
	.st82{fill:#FDCA02;}
	.st83{fill:#B4CD50;}
	.st84{fill:#5C792A;}
	.st85{fill:#C29347;}
	.st86{fill:#4D5C22;}
	.st87{fill:none;}
	.st88{fill:#E19C11;}
	.st89{fill:#E5C997;}
	.st90{fill:#009245;}
	.st91{fill:#48AE4D;}
	.st92{fill:#049348;}
	.st93{fill:#04683B;}
	.st94{fill:#F8AE4C;}
	.st95{fill:#C57B39;}
	.st96{fill:#231F20;}
	.st97{fill:#BC2333;}
	.st98{fill:#EF7A7B;}
	.st99{fill:#46AE51;}
	.st100{fill:#07924B;}
	.st101{fill-rule:evenodd;clip-rule:evenodd;fill:#231F20;}
	.st102{fill:#279A9A;}
	.st103{fill:#8E3189;}
	.st104{fill:#9F6E8E;}
	.st105{fill:#3C3C3B;}
	.st106{fill:#00A69C;}
	.st107{fill:#D5DB41;}
	.st108{fill:#E04542;}
	.st109{fill:#9F1F3B;}
	.st110{fill:#EB5C35;}
	.st111{fill:#F9B233;}
	.st112{fill:#008D36;}
	.st113{fill:#F39200;}
	.st114{fill:#F2D8BD;}
	.st115{fill:#3AAA35;}
	.st116{fill:#95C11F;}
	.st117{fill:#7F5FA5;}
	.st118{fill:#5FA55F;}
	.st119{fill:#A55F8F;}
	.st120{fill:#229538;}
	.st121{fill:#622369;}
	.st122{fill:#FCC804;}
	.st123{fill:#628FB8;}
	.st124{fill:#B2B2B2;}
	.st125{fill:#63B8A4;}
	.st126{fill:#FDCE6C;}
	.st127{fill:#C8DADC;}
	.st128{fill:#ED6B6E;}
	.st129{fill:#EC6365;}
	.st130{fill:#8FC14D;}
	.st131{fill:#FECE6C;}
	.st132{fill:#037132;}
	.st133{fill:#B5CD25;}
	.st134{fill:#137E35;}
	.st135{fill:#7DBA28;}
	.st136{fill:#50AE32;}
	.st137{fill:#04612D;}
	.st138{fill:#F0828B;}
	.st139{fill:#63348B;}
	.st140{fill:#CF75AC;}
	.st141{fill:#895B7E;}
	.st142{fill:#AD94C4;}
	.st143{fill:#C581AB;}
	.st144{fill:#D1BAB0;}
	.st145{fill:#EF7B7C;}
	.st146{fill:#F7C0C2;}
	.st147{fill:#4F1C31;}
	.st148{fill:#9C3760;}
	.st149{fill:#A8768F;}
	.st150{fill:#A04170;}
	.st151{fill:#6CB863;}
</style>
<g>
	<g>
		<path class="st20" d="M211.1,196.1c3.3-48.7,10.5-3.7-108.9-21.7c-1.9-1.1-4.6-0.5-5.1,1.7c-0.6,1.2-0.7,2.7,0.2,3.7
			c15.7,165.3-13.7,163.1-4.9,168.3c27,16.1,140.1,7.4,136.1-5.4c-5.6-18-9.9-36.3-13-54.9C250.1,281.5,245.1,173.9,211.1,196.1z
			 M213,271.1c-2.2-18.7-3.1-37.5-2.7-56.4C234.5,177.1,227,288.7,213,271.1z"/>
		<path class="st23" d="M200.6,196.3c0.2-2.1-1.2-3.6-3.4-3.2c-58.6,10.8-84.8-2.6-86.7,2.7c-1.1,3,2.7,3.1,2.9,69.4
			c0,12.7-0.1,25.5-1.3,38.1c-2.4,26.4-10.1,23.5-5.3,26.3c10.4,6.2,26.3,6.1,37.9,6.7c22.3,1.1,45.7,1.3,66.2-7.5
			C222.2,323.9,192.3,300.4,200.6,196.3z"/>
		<path class="st22" d="M226.6,166.6c0.2-0.3,0.4-0.6,0.6-0.9c4.3-1.9,7.1-6.2,4.6-11.9c-1.7-3.9-4.3-6.3-7.3-7.6
			c-0.2-2.8-1.5-5.7-4.6-8.4c-4-3.7-8.2-4.5-11.9-3.4c-1.9-2.2-4.6-4-8.1-5c-3.4-0.9-6.7-0.7-9.6,0.3c-0.6-0.4-1.3-0.7-2.1-0.9
			c-0.9-0.3-1.8-0.5-2.6-0.7c-4.7-4.7-12.1-6-18.7-3.8c-7-3.6-16.3-4.6-23.3-0.9c-2.7-0.8-5.7-0.9-8.5-0.1c-1.5,0.4-2.8,1-4,1.7
			c-5.7-2.3-12.4-2.2-18,1.3c-3.5,1.7-6.5,4.7-8.6,8.2c-1.9,0.7-3.7,1.6-5.2,2.8c-10.1-5.2-21.7,2.2-23.8,13.3
			c-0.1,0.6-0.2,1.3-0.2,2c-2,2.6-3.5,6-4.4,9.6c-0.4,0.7-0.8,1.4-1.2,2.2c-2.4,5.8-0.8,11.1,2.7,15.2c0.5,3.7,1.5,7.2,2.9,10.6
			c0.6,2.6,1.9,5.1,3.7,7.1c0.1,0.1,0.2,0.3,0.3,0.4c0.5,1.2,1.1,2.4,1.8,3.6c-1.1,4.1-1.4,8.3-0.6,12.6c-0.8,0.9-1.7,1.6-2.8,2.3
			c-4.4,3.7-3.6,10.3-0.1,14.4c0.7,3.6,2.4,6.9,6,9.3c0.1,0,0.1,0.1,0.2,0.1c0,0.3,0.1,0.5,0.1,0.8c1.6,9.6,15.3,9.1,19.5,2.1
			c2.3-3.9,3.1-8.2,2.6-12.3c2.6-4.7,0.5-10.3-3.5-13.2c0.1-0.7,0.1-1.4,0-2.1c0.1-0.5,0.1-1,0.1-1.5c0.7-2.9,1.6-5.7,2.7-8.5
			c0.9-2.2,1.4-5,1-7.5c2.3-3.4,2.7-7.4,1.7-11c1.8-0.2,3.3-0.8,4.6-1.6c3.7,0.1,7.7-2,9.7-5.2c0.8,0.4,1.8,0.6,2.7,0.8
			c0.1,0.2,0.2,0.4,0.3,0.6c6.3,11,21.5,10.2,28.5,0.5c0,0,0-0.1,0.1-0.1c1.4-0.3,2.8-0.9,4-1.8c1.8,1.7,4,3,6.6,3.6
			c5.5,1.2,9.6-0.3,12.5-3.3c3.7,1.8,7.3,3.6,12.3,3.6c3.7,0,7.8-0.6,11.5-2c0.3,0.5,0.6,1,0.8,1.5c5,9.1,15.2,5.2,18.4-2.1
			C226.2,179.4,228.8,172.3,226.6,166.6z"/>
	</g>
	<g>
		<path class="st0" d="M351.9,215.9c0-29.7,4-43.2-23.8-54l-5.3-68.7h0.9c2.9,0,5.3-2.4,5.3-5.3c0-2.9-2.4-5.3-5.3-5.3h-27.3
			c-2.9,0-5.3,2.4-5.3,5.3c0,2.8,2.2,5.1,5,5.3c0.1,1.4,0.3,3,0.3,4.4l-7,65.5c-23.6,9.3-20.3,20.7-20.3,56.6
			C316.1,224.1,349.7,215.9,351.9,215.9z"/>
		<path class="st0" d="M269.1,274.5v69.8c0,16.5,82.8,17.3,82.8,0v-72.6c0,0-0.1,0-0.1,0C324.5,277.1,296.6,278.1,269.1,274.5z"/>
		<g>
			<path class="st1" d="M290.2,236.4c-0.6-0.3-1.2-0.6-1.9-0.7c-0.8,5.8-0.6,11.6,0,17.5c2.6-1.1,4.4-3,5.6-5.4
				c0.9-1.7,1.1-3.5,0.7-5.4C293.9,239.9,292.6,237.8,290.2,236.4z"/>
			<path class="st1" d="M333.7,249.8c2.2-2.7,3.1-5.9,2.8-9.5c-0.1-0.9-0.3-1.8-0.7-2.6c-0.7-1.2-1.5-1.4-2.6-0.8
				c-0.3,0.2-0.5,0.4-0.7,0.6c-0.5,0.5-1,1.1-1.4,1.8c-0.8,1.3-1.4,2.7-2.1,4.1c-0.5,1.1-0.9,2.2-0.7,3.2c0,2,0.1,3.7,0.3,5.4
				c0,0.5,0.1,0.6,0.6,0.5C330.8,252,332.5,251.3,333.7,249.8z"/>
			<path class="st1" d="M288.9,260.4c0,0.3,0.2,0.4,0.5,0.3c0.7-0.3,1.3-0.6,1.8-1.2c0.6-0.8,0.5-1.4-0.2-2c-0.6-0.6-1.4-0.9-2.4-1
				C288.7,257.8,288.8,259.1,288.9,260.4z"/>
			<path class="st1" d="M269.1,221.3c0,17.2,0,34.5,0,51.7c27.6,3.6,55.5,2.7,82.8-2.7c0-17.6,0-35.2,0-52.9
				C324.6,222.6,296.7,223.9,269.1,221.3z M294.3,251.6c-1,1.2-2.1,2.1-3.4,2.9c0.4,0.3,0.8,0.5,1.1,0.7c2.4,1.7,2.6,4.3,0.5,6.3
				c-0.7,0.7-1.6,1.1-2.6,1.5c-1.2,0.4-2.5,0.5-3.8,0.6c-1.5,0.1-2.3-0.5-2.5-1.9c-0.2-1.2-0.4-2.3-0.5-3.5c-0.6-4.9-0.8-9.8-1-14.6
				c-0.1-2.6,0-5.2,0.3-7.8c0-0.4,0.1-0.7,0.2-1.1c0.1-0.7,0.6-1,1.2-1.2c1.2-0.4,2.4-0.4,3.7-0.3c5.8,0.7,9.1,5,9.7,9.9
				C297.4,246.3,296.3,249.1,294.3,251.6z M304.1,252.1c0,0.4,0.1,0.8,0.1,1.3c0,0.3,0.2,0.5,0.5,0.4c0.5,0,0.9,0,1.4,0
				c0.3,0,0.6,0.1,0.9,0.2c0.4,0.3,0.6,0.8,0.5,1.2c-0.1,0.5-0.7,0.8-1.3,0.8c-0.4,0-0.7-0.1-1.1-0.1c-0.5,0-0.6,0.1-0.5,0.5
				c0.1,1.3,0.3,2.6,0.4,4c0.1,0.5,0.1,0.5,0.6,0.4c0.6-0.1,1.2-0.2,1.8-0.4c0.8-0.3,1.4,0.1,1.7,0.7c0.2,0.6-0.2,1.3-1,1.5
				c-0.5,0.1-1,0.2-1.4,0.3c-1.4,0.2-2.8,0.5-4.2,0.5c-1.4,0-1.8-0.2-2.3-1.6c-0.3-0.7-0.3-1.5-0.4-2.3c-0.3-2.2-0.5-4.4-0.7-6.5
				c-0.3-2.7-0.3-5.4-0.4-8.4c0-2.7,0.1-5.6,0.8-8.5c0.1-0.6,0.3-1.2,0.6-1.7c0.5-0.9,1.2-1.3,2.2-1.5c1.9-0.2,3.7,0,5.6,0.1
				c0.2,0,0.4,0.1,0.6,0.1c0.5,0.2,0.8,0.6,0.8,1.2c-0.1,0.5-0.5,0.9-1,1c-0.4,0-0.8,0-1.1,0c-0.2,0-0.3,0-0.5-0.1
				c-1-0.1-1-0.1-1.2,0.9c-0.3,1.9-0.6,3.8-0.9,5.7C303.9,245.2,303.8,248.6,304.1,252.1z M316.1,252.1c0,0.4,0.1,0.8,0.1,1.3
				c0,0.3,0.2,0.5,0.5,0.4c0.5,0,0.9,0,1.4,0c0.3,0,0.6,0.1,0.9,0.2c0.4,0.3,0.6,0.8,0.5,1.2c-0.1,0.5-0.7,0.8-1.3,0.8
				c-0.4,0-0.7-0.1-1.1-0.1c-0.5,0-0.6,0.1-0.5,0.5c0.1,1.3,0.3,2.6,0.4,4c0.1,0.5,0.1,0.5,0.6,0.4c0.6-0.1,1.2-0.2,1.8-0.4
				c0.8-0.3,1.4,0.1,1.7,0.7c0.2,0.6-0.2,1.3-1,1.5c-0.5,0.1-1,0.2-1.4,0.3c-1.4,0.2-2.8,0.5-4.2,0.5c-1.4,0-1.8-0.2-2.3-1.6
				c-0.3-0.7-0.3-1.5-0.4-2.3c-0.3-2.2-0.5-4.4-0.7-6.5c-0.3-2.7-0.3-5.4-0.4-8.4c0-2.7,0.1-5.6,0.8-8.5c0.1-0.6,0.3-1.2,0.6-1.7
				c0.5-0.9,1.2-1.3,2.2-1.5c1.9-0.2,3.7,0,5.6,0.1c0.2,0,0.4,0.1,0.6,0.1c0.5,0.2,0.8,0.6,0.8,1.2c-0.1,0.5-0.5,0.9-1,1
				c-0.4,0-0.8,0-1.1,0c-0.2,0-0.3,0-0.5-0.1c-1-0.1-1-0.1-1.2,0.9c-0.3,1.9-0.6,3.8-0.9,5.7C315.9,245.2,315.8,248.6,316.1,252.1z
				 M330,255.8c1.4,0.8,2.9,1.6,4.4,2.2c0.4,0.1,0.7,0.2,1.1,0.3c0.9,0.1,1.4,0.9,1.2,1.8c-0.2,0.8-0.9,1.3-1.7,1
				c-1.7-0.6-3.4-1.3-5.1-2.2c-0.3-0.1-0.5-0.4-0.9-0.3c0,0.9,0.2,1.7,0.2,2.6c0.1,1.7-0.7,2.3-1.9,2.3c-0.3,0-0.6,0.1-0.9,0.1
				c-1.2,0.2-2-0.4-2.4-1.7c-0.5-1.5-0.7-3.1-0.9-4.7c-0.5-4.6-0.9-9.2-0.7-13.8c0.1-2.8,0.3-5.5,0.9-8.3c0.3-1.5,0.8-1.8,2.1-1.9
				c0.6-0.1,1.3,0,1.9,0c1.2,0.1,1.8,0.9,1.6,2.3c-0.1,0.7-0.2,1.5-0.3,2.3c0.4-0.2,0.5-0.6,0.7-0.8c1-1.4,2.2-2.6,3.8-3
				c1.3-0.4,2.4-0.1,3.4,0.8c1,0.9,1.5,2.1,1.9,3.4c1.4,5.5-0.6,14.1-7.8,16.6c-0.4,0.1-0.9,0.3-1.3,0.5
				C329.5,255.6,329.8,255.7,330,255.8z"/>
		</g>
	</g>
	<g>
		<path class="st1" d="M375.8,122.9c-2.1-1.7-4.8-1.9-7.5-1.5c2.2-2.4,3.8-5.1,3-8.4c-0.5-2.2-2.2-4.1-4.5-4.1c-2.2-0.1-3.9,1.3-5,3
			c-1-2.3-3.1-4.1-5.7-4.4c-2.1-0.2-3.8,0.9-4.5,2.9c-0.7,2.2-0.5,4.7,0.4,7.1c-1.8-0.9-3.8-1.3-5.8-1c-2.5,0.4-4.8,2.4-4.6,5.1
			c0.1,2.2,1.7,3.8,3.5,4.7c-2.2,1.2-3.7,3.5-3.7,6.1c0,2.2,1.3,3.8,3.5,4.1c4.2,0.7,9-1.9,12.2-5.2c-1,3.3-2.9,6.5-4.9,9.2
			c-1.7,2.3-4,5.7-6.9,6.7c-0.6-0.2-1.4,0.1-1.5,1c-0.3,2.6,3.1,0.8,3.8,0.2c5.4-4.1,9.3-9.7,11.7-15.9c1.9,4.1,5.4,8,9.6,9
			c2,0.5,3.9-0.2,4.8-2.1c1.2-2.5,0.6-5.4-1.1-7.4c1.9-0.2,3.7-0.9,4.7-2.6C378.7,127.1,377.7,124.5,375.8,122.9z"/>
		<path class="st1" d="M126.5,91.2c1.8-1.7,2.8-4.3,2.2-6.9c-0.5-2.1-2.1-3.3-4.2-3.2c-2.4,0.1-4.6,1.2-6.6,2.8c0.2-2,0-4-1.1-5.8
			c-1.3-2.2-3.9-3.7-6.4-2.6c-2,0.9-3,2.9-3.2,4.9c-1.9-1.6-4.5-2.3-7-1.4c-2,0.8-3.1,2.5-2.7,4.7c0.8,4.2,4.8,7.8,9,9.7
			c-3.5,0.2-7.1-0.6-10.4-1.5c-2.7-0.8-6.7-1.9-8.7-4.3c0-0.7-0.5-1.3-1.4-1.1c-2.6,0.6,0.3,3.2,1.1,3.7c5.7,3.7,12.2,5.5,19,5.6
			c-3.3,3.2-5.7,7.8-5.2,12.1c0.3,2.1,1.5,3.6,3.6,3.8c2.7,0.3,5.3-1.3,6.6-3.5c0.8,1.7,2.1,3.2,4.1,3.6c2.6,0.5,4.8-1.3,5.5-3.7
			c0.9-2.6,0.2-5.1-1.1-7.5c3,1.3,6.1,1.8,8.9,0c1.9-1.2,3.1-3.4,2.4-5.7C130.4,92.8,128.5,91.7,126.5,91.2z"/>
		<path class="st1" d="M88.4,300.8c-2.1-1.7-4.8-1.9-7.5-1.5c2.2-2.4,3.8-5.1,3-8.4c-0.5-2.2-2.2-4.1-4.5-4.1c-2.2-0.1-3.9,1.3-5,3
			c-1-2.3-3.1-4.1-5.7-4.4c-2.1-0.2-3.8,0.9-4.5,2.9c-0.7,2.2-0.5,4.7,0.4,7.1c-1.8-0.9-3.8-1.3-5.8-1c-2.5,0.4-4.8,2.4-4.6,5.1
			c0.1,2.2,1.7,3.8,3.5,4.7c-2.2,1.2-3.7,3.5-3.7,6.1c0,2.2,1.3,3.8,3.5,4.1c4.2,0.7,9-1.9,12.2-5.2c-1,3.3-2.9,6.5-4.9,9.2
			c-1.7,2.3-4,5.7-6.9,6.7c-0.6-0.2-1.4,0.1-1.5,1c-0.3,2.6,3.1,0.8,3.8,0.2c5.4-4.1,9.3-9.7,11.7-15.9c1.9,4.1,5.4,8,9.6,9
			c2,0.5,3.9-0.2,4.8-2.1c1.2-2.5,0.6-5.4-1.1-7.4c1.9-0.2,3.7-0.9,4.7-2.6C91.3,305,90.3,302.4,88.4,300.8z"/>
		<path class="st1" d="M269.4,117.2c1.1-2.2,1.1-5-0.4-7.1c-1.3-1.8-3.2-2.4-5.2-1.4c-3.9,1.8-6.3,6.7-7.1,11.2
			c-1.1-3.3-1.3-7-1.2-10.4c0.1-2.8,0.1-7,1.9-9.5c0.6-0.2,1.1-0.8,0.6-1.7c-1.2-2.4-3,1.1-3.3,2c-2.1,6.4-2.2,13.3-0.6,19.8
			c-3.9-2.3-9-3.5-13-1.9c-1.9,0.8-3.1,2.4-2.8,4.5c0.4,2.7,2.6,4.8,5.1,5.5c-1.5,1.2-2.5,2.8-2.4,4.9c0.2,2.7,2.5,4.3,5,4.4
			c2.7,0.2,5-1.2,7-3c-0.5,3.2-0.2,6.4,2.3,8.6c1.7,1.5,4.1,2.1,6.1,0.8c1.8-1.2,2.4-3.3,2.4-5.3c2.1,1.3,4.9,1.7,7.2,0.3
			c1.8-1,2.6-2.9,2-4.9c-0.7-2.3-2.3-4.2-4.3-5.6c2-0.3,3.9-1.1,5.3-2.5c1.8-1.8,2.6-4.7,0.9-6.9
			C273.6,117.3,271.4,116.9,269.4,117.2z"/>
	</g>
</g>
</svg>
